<svg viewBox="0 0 59 59" xmlns="http://www.w3.org/2000/svg"><path d="m32.499 6c-.209 0-.419-.066-.599-.2-.442-.331-.532-.958-.2-1.399l3-4c.331-.442.958-.531 1.399-.2.442.331.532.958.2 1.399l-3 4c-.196.262-.495.4-.8.4z" fill="#424a60"/><path d="m46.5 5h-34c-1.1 0-2 .9-2 2v50c0 1.1.9 2 2 2h34c1.1 0 2-.9 2-2v-50c0-1.1-.9-2-2-2zm-17 9c-1.657 0-3-1.343-3-3s1.343-3 3-3 3 1.343 3 3-1.343 3-3 3z" fill="#e7eced"/><path d="m10.5 41v16c0 1.1.9 2 2 2h34c1.1 0 2-.9 2-2v-16z" fill="#556080"/><g fill="#fff"><path d="m20.5 51h18c.553 0 1-.447 1-1s-.447-1-1-1h-18c-.553 0-1 .447-1 1s.447 1 1 1z"/><path d="m24.5 47h10c.553 0 1-.447 1-1s-.447-1-1-1h-10c-.553 0-1 .447-1 1s.447 1 1 1z"/><path d="m21.5 53h-1c-.553 0-1 .447-1 1s.447 1 1 1h1c.553 0 1-.447 1-1s-.447-1-1-1z"/><path d="m27.5 53h-2c-.553 0-1 .447-1 1s.447 1 1 1h2c.553 0 1-.447 1-1s-.447-1-1-1z"/><path d="m32.5 53h-1c-.553 0-1 .447-1 1s.447 1 1 1h1c.553 0 1-.447 1-1s-.447-1-1-1z"/><path d="m38.5 53h-2c-.553 0-1 .447-1 1s.447 1 1 1h2c.553 0 1-.447 1-1s-.447-1-1-1z"/></g><path d="m38.495 41c-.027-1.214-.719-2.317-1.809-2.862l-3.767-1.924c-.257-.131-.419-.396-.419-.685v-1.153c1.933-.833 3.044-2.451 3.585-4.475.815-.252 1.415-1.006 1.415-1.901v-1c0-.766-.441-1.427-1.078-1.763-.441-3.761-2.927-5.283-6.922-5.283-.189 0-.375.007-.557.022-1.358.108-2.732-.147-3.862-.909-.47-.316-.865-.653-1.143-1.006-.127-.161-.38-.058-.357.145.04.35.1.758.188 1.204.33 1.66.133 1.418-.509 2.984-.355.866-.584 1.827-.69 2.845-.632.339-1.07.998-1.07 1.761v1c0 .895.6 1.649 1.415 1.902.541 2.023 1.651 3.642 3.585 4.475v1.145c0 .293-.166.56-.429.69l-3.861 1.901c-1.054.575-1.71 1.68-1.71 2.88v.007z" fill="#3083c9"/><path d="m29.501 12c-.367 0-.72-.202-.896-.553l-5-10c-.247-.494-.047-1.095.447-1.342.494-.245 1.095-.047 1.342.447l5 10c.247.494.047 1.095-.447 1.342-.143.072-.296.106-.446.106z" fill="#424a60"/></svg>